<mxfile host="65bd71144e">
    <diagram id="ssOY2jdB5DaPvYgTQhJO" name="Page-1">
        <mxGraphModel dx="693" dy="428" grid="0" gridSize="7" guides="1" tooltips="1" connect="1" arrows="1" fold="1" page="1" pageScale="1" pageWidth="850" pageHeight="1100" background="#FFFFFF" math="0" shadow="0">
            <root>
                <mxCell id="0"/>
                <mxCell id="1" parent="0"/>
                <mxCell id="77" value="" style="whiteSpace=wrap;html=1;aspect=fixed;fontSize=12;fontColor=#000000;strokeColor=#FFFF00;" vertex="1" parent="1">
                    <mxGeometry x="235" y="124" width="436" height="436" as="geometry"/>
                </mxCell>
                <mxCell id="2" value="&lt;b&gt;&lt;font color=&quot;#ff3399&quot; style=&quot;font-size: 20px;&quot;&gt;Basic RAG Architecture&lt;/font&gt;&lt;/b&gt;" style="text;html=1;align=center;verticalAlign=middle;resizable=0;points=[];autosize=1;strokeColor=none;fillColor=none;" vertex="1" parent="1">
                    <mxGeometry x="328" y="35" width="250" height="40" as="geometry"/>
                </mxCell>
                <mxCell id="24" value="" style="group;fontSize=12;" vertex="1" connectable="0" parent="1">
                    <mxGeometry x="293.5" y="217" width="113.5" height="49" as="geometry"/>
                </mxCell>
                <mxCell id="11" value="" style="rounded=1;whiteSpace=wrap;html=1;fontSize=12;fontColor=#000000;movable=1;resizable=1;rotatable=1;deletable=1;editable=1;connectable=1;" vertex="1" parent="24">
                    <mxGeometry width="113.5" height="49" as="geometry"/>
                </mxCell>
                <mxCell id="15" value="" style="verticalLabelPosition=bottom;html=1;verticalAlign=top;align=center;strokeColor=none;fillColor=#00BEF2;shape=mxgraph.azure.cloud_services_configuration_file;pointerEvents=1;fontSize=12;fontColor=#000000;movable=1;resizable=1;rotatable=1;deletable=1;editable=1;connectable=1;" vertex="1" parent="24">
                    <mxGeometry x="10.640625" y="21.77777777777778" width="21.28125" height="21.77777777777778" as="geometry"/>
                </mxCell>
                <mxCell id="16" value="" style="verticalLabelPosition=bottom;html=1;verticalAlign=top;align=center;strokeColor=none;fillColor=#00BEF2;shape=mxgraph.azure.cloud_services_configuration_file;pointerEvents=1;fontSize=12;fontColor=#000000;movable=1;resizable=1;rotatable=1;deletable=1;editable=1;connectable=1;" vertex="1" parent="24">
                    <mxGeometry x="47.42" y="21.78" width="18.66" height="21.78" as="geometry"/>
                </mxCell>
                <mxCell id="17" value="" style="verticalLabelPosition=bottom;html=1;verticalAlign=top;align=center;strokeColor=none;fillColor=#00BEF2;shape=mxgraph.azure.cloud_services_configuration_file;pointerEvents=1;fontSize=12;fontColor=#000000;movable=1;resizable=1;rotatable=1;deletable=1;editable=1;connectable=1;" vertex="1" parent="24">
                    <mxGeometry x="78.51" y="21.78" width="19.5" height="21.78" as="geometry"/>
                </mxCell>
                <mxCell id="18" value="Parsed Files" style="text;html=1;strokeColor=none;fillColor=none;align=center;verticalAlign=middle;whiteSpace=wrap;rounded=0;fontSize=12;fontColor=#000000;movable=1;resizable=1;rotatable=1;deletable=1;editable=1;connectable=1;" vertex="1" parent="24">
                    <mxGeometry x="24.828125" y="5.444444444444445" width="70.9375" height="16.333333333333336" as="geometry"/>
                </mxCell>
                <mxCell id="25" value="" style="endArrow=classic;html=1;fontSize=12;fontColor=#000000;exitX=0.5;exitY=1;exitDx=0;exitDy=0;entryX=0.5;entryY=0;entryDx=0;entryDy=0;" edge="1" parent="1" source="6" target="11">
                    <mxGeometry width="50" height="50" relative="1" as="geometry">
                        <mxPoint x="500" y="263.75" as="sourcePoint"/>
                        <mxPoint x="550" y="213.75" as="targetPoint"/>
                    </mxGeometry>
                </mxCell>
                <mxCell id="42" value="" style="group;fontSize=12;" vertex="1" connectable="0" parent="1">
                    <mxGeometry x="291.75" y="294" width="117.5" height="56" as="geometry"/>
                </mxCell>
                <mxCell id="27" value="" style="rounded=1;whiteSpace=wrap;html=1;fontSize=12;fontColor=#000000;" vertex="1" parent="42">
                    <mxGeometry width="117.5" height="56.00000000000001" as="geometry"/>
                </mxCell>
                <mxCell id="29" value="Chunks of data" style="text;html=1;strokeColor=none;fillColor=none;align=center;verticalAlign=middle;whiteSpace=wrap;rounded=0;fontSize=12;fontColor=#000000;" vertex="1" parent="42">
                    <mxGeometry x="13.281696428571427" y="3.0857142857142854" width="87.36964285714286" height="18.457142857142856" as="geometry"/>
                </mxCell>
                <mxCell id="30" value="" style="sketch=0;pointerEvents=1;shadow=0;dashed=0;html=1;strokeColor=none;fillColor=#505050;labelPosition=center;verticalLabelPosition=bottom;verticalAlign=top;outlineConnect=0;align=center;shape=mxgraph.office.concepts.document_blank;fontSize=12;fontColor=#000000;" vertex="1" parent="42">
                    <mxGeometry x="10.681818181818182" y="21.538461538461544" width="12.106060606060604" height="12.923076923076923" as="geometry"/>
                </mxCell>
                <mxCell id="31" value="" style="sketch=0;pointerEvents=1;shadow=0;dashed=0;html=1;strokeColor=none;fillColor=#505050;labelPosition=center;verticalLabelPosition=bottom;verticalAlign=top;outlineConnect=0;align=center;shape=mxgraph.office.concepts.document_blank;fontSize=12;fontColor=#000000;" vertex="1" parent="42">
                    <mxGeometry x="32.04545454545454" y="21.538461538461544" width="12.106060606060604" height="12.923076923076923" as="geometry"/>
                </mxCell>
                <mxCell id="32" value="" style="sketch=0;pointerEvents=1;shadow=0;dashed=0;html=1;strokeColor=none;fillColor=#505050;labelPosition=center;verticalLabelPosition=bottom;verticalAlign=top;outlineConnect=0;align=center;shape=mxgraph.office.concepts.document_blank;fontSize=12;fontColor=#000000;" vertex="1" parent="42">
                    <mxGeometry x="50.91666666666666" y="21.538461538461544" width="12.106060606060604" height="12.923076923076923" as="geometry"/>
                </mxCell>
                <mxCell id="33" value="" style="sketch=0;pointerEvents=1;shadow=0;dashed=0;html=1;strokeColor=none;fillColor=#505050;labelPosition=center;verticalLabelPosition=bottom;verticalAlign=top;outlineConnect=0;align=center;shape=mxgraph.office.concepts.document_blank;fontSize=12;fontColor=#000000;" vertex="1" parent="42">
                    <mxGeometry x="71.2121212121212" y="21.538461538461544" width="12.106060606060604" height="12.923076923076923" as="geometry"/>
                </mxCell>
                <mxCell id="34" value="" style="sketch=0;pointerEvents=1;shadow=0;dashed=0;html=1;strokeColor=none;fillColor=#505050;labelPosition=center;verticalLabelPosition=bottom;verticalAlign=top;outlineConnect=0;align=center;shape=mxgraph.office.concepts.document_blank;fontSize=12;fontColor=#000000;" vertex="1" parent="42">
                    <mxGeometry x="92.57575757575758" y="21.538461538461544" width="12.106060606060604" height="12.923076923076923" as="geometry"/>
                </mxCell>
                <mxCell id="35" value="" style="sketch=0;pointerEvents=1;shadow=0;dashed=0;html=1;strokeColor=none;fillColor=#505050;labelPosition=center;verticalLabelPosition=bottom;verticalAlign=top;outlineConnect=0;align=center;shape=mxgraph.office.concepts.document_blank;fontSize=12;fontColor=#000000;" vertex="1" parent="42">
                    <mxGeometry x="10.681818181818182" y="38.769230769230774" width="12.106060606060604" height="12.923076923076923" as="geometry"/>
                </mxCell>
                <mxCell id="38" value="" style="sketch=0;pointerEvents=1;shadow=0;dashed=0;html=1;strokeColor=none;fillColor=#505050;labelPosition=center;verticalLabelPosition=bottom;verticalAlign=top;outlineConnect=0;align=center;shape=mxgraph.office.concepts.document_blank;fontSize=12;fontColor=#000000;" vertex="1" parent="42">
                    <mxGeometry x="32.04545454545454" y="38.769230769230774" width="12.106060606060604" height="12.923076923076923" as="geometry"/>
                </mxCell>
                <mxCell id="39" value="" style="sketch=0;pointerEvents=1;shadow=0;dashed=0;html=1;strokeColor=none;fillColor=#505050;labelPosition=center;verticalLabelPosition=bottom;verticalAlign=top;outlineConnect=0;align=center;shape=mxgraph.office.concepts.document_blank;fontSize=12;fontColor=#000000;" vertex="1" parent="42">
                    <mxGeometry x="50.91666666666666" y="38.769230769230774" width="12.106060606060604" height="12.923076923076923" as="geometry"/>
                </mxCell>
                <mxCell id="40" value="" style="sketch=0;pointerEvents=1;shadow=0;dashed=0;html=1;strokeColor=none;fillColor=#505050;labelPosition=center;verticalLabelPosition=bottom;verticalAlign=top;outlineConnect=0;align=center;shape=mxgraph.office.concepts.document_blank;fontSize=12;fontColor=#000000;" vertex="1" parent="42">
                    <mxGeometry x="71.2121212121212" y="38.769230769230774" width="12.106060606060604" height="12.923076923076923" as="geometry"/>
                </mxCell>
                <mxCell id="41" value="" style="sketch=0;pointerEvents=1;shadow=0;dashed=0;html=1;strokeColor=none;fillColor=#505050;labelPosition=center;verticalLabelPosition=bottom;verticalAlign=top;outlineConnect=0;align=center;shape=mxgraph.office.concepts.document_blank;fontSize=12;fontColor=#000000;" vertex="1" parent="42">
                    <mxGeometry x="92.57575757575758" y="38.769230769230774" width="12.106060606060604" height="12.923076923076923" as="geometry"/>
                </mxCell>
                <mxCell id="47" value="Embedding Model" style="rounded=1;whiteSpace=wrap;html=1;fontSize=12;fontColor=#000000;" vertex="1" parent="1">
                    <mxGeometry x="448" y="294" width="98" height="56" as="geometry"/>
                </mxCell>
                <mxCell id="52" value="" style="childLayout=tableLayout;recursiveResize=0;shadow=0;fillColor=none;fontSize=12;fontColor=#000000;" vertex="1" parent="1">
                    <mxGeometry x="428.75" y="392" width="136.5" height="49" as="geometry"/>
                </mxCell>
                <mxCell id="53" value="" style="shape=tableRow;horizontal=0;startSize=0;swimlaneHead=0;swimlaneBody=0;top=0;left=0;bottom=0;right=0;dropTarget=0;collapsible=0;recursiveResize=0;expand=0;fontStyle=0;fillColor=none;strokeColor=inherit;fontSize=12;fontColor=#000000;" vertex="1" parent="52">
                    <mxGeometry width="136.5" height="25" as="geometry"/>
                </mxCell>
                <mxCell id="54" value="Value 1" style="connectable=0;recursiveResize=0;strokeColor=inherit;fillColor=none;align=center;whiteSpace=wrap;html=1;fontSize=12;fontColor=#000000;" vertex="1" parent="53">
                    <mxGeometry width="46" height="25" as="geometry">
                        <mxRectangle width="46" height="25" as="alternateBounds"/>
                    </mxGeometry>
                </mxCell>
                <mxCell id="55" value="Value 2" style="connectable=0;recursiveResize=0;strokeColor=inherit;fillColor=none;align=center;whiteSpace=wrap;html=1;fontSize=12;fontColor=#000000;" vertex="1" parent="53">
                    <mxGeometry x="46" width="45" height="25" as="geometry">
                        <mxRectangle width="45" height="25" as="alternateBounds"/>
                    </mxGeometry>
                </mxCell>
                <mxCell id="56" value="Value 3" style="connectable=0;recursiveResize=0;strokeColor=inherit;fillColor=none;align=center;whiteSpace=wrap;html=1;fontSize=12;fontColor=#000000;" vertex="1" parent="53">
                    <mxGeometry x="91" width="46" height="25" as="geometry">
                        <mxRectangle width="46" height="25" as="alternateBounds"/>
                    </mxGeometry>
                </mxCell>
                <mxCell id="57" style="shape=tableRow;horizontal=0;startSize=0;swimlaneHead=0;swimlaneBody=0;top=0;left=0;bottom=0;right=0;dropTarget=0;collapsible=0;recursiveResize=0;expand=0;fontStyle=0;fillColor=none;strokeColor=inherit;fontSize=12;fontColor=#000000;" vertex="1" parent="52">
                    <mxGeometry y="25" width="136.5" height="24" as="geometry"/>
                </mxCell>
                <mxCell id="58" value="Value 4" style="connectable=0;recursiveResize=0;strokeColor=inherit;fillColor=none;align=center;whiteSpace=wrap;html=1;fontSize=12;fontColor=#000000;" vertex="1" parent="57">
                    <mxGeometry width="46" height="24" as="geometry">
                        <mxRectangle width="46" height="24" as="alternateBounds"/>
                    </mxGeometry>
                </mxCell>
                <mxCell id="59" value="Value 5" style="connectable=0;recursiveResize=0;strokeColor=inherit;fillColor=none;align=center;whiteSpace=wrap;html=1;fontSize=12;fontColor=#000000;" vertex="1" parent="57">
                    <mxGeometry x="46" width="45" height="24" as="geometry">
                        <mxRectangle width="45" height="24" as="alternateBounds"/>
                    </mxGeometry>
                </mxCell>
                <mxCell id="60" value="Value 6" style="connectable=0;recursiveResize=0;strokeColor=inherit;fillColor=none;align=center;whiteSpace=wrap;html=1;fontSize=12;fontColor=#000000;" vertex="1" parent="57">
                    <mxGeometry x="91" width="46" height="24" as="geometry">
                        <mxRectangle width="46" height="24" as="alternateBounds"/>
                    </mxGeometry>
                </mxCell>
                <mxCell id="65" value="" style="endArrow=classic;html=1;fontSize=12;fontColor=#000000;exitX=0.5;exitY=1;exitDx=0;exitDy=0;entryX=0.5;entryY=0;entryDx=0;entryDy=0;" edge="1" parent="1" source="47" target="53">
                    <mxGeometry width="50" height="50" relative="1" as="geometry">
                        <mxPoint x="413" y="561" as="sourcePoint"/>
                        <mxPoint x="463" y="511" as="targetPoint"/>
                    </mxGeometry>
                </mxCell>
                <mxCell id="66" value="Vectorization" style="text;html=1;strokeColor=none;fillColor=none;align=center;verticalAlign=middle;whiteSpace=wrap;rounded=0;fontSize=12;fontColor=#000000;" vertex="1" parent="1">
                    <mxGeometry x="518" y="357" width="60" height="30" as="geometry"/>
                </mxCell>
                <mxCell id="70" value="" style="group" vertex="1" connectable="0" parent="1">
                    <mxGeometry x="441" y="469" width="119" height="70" as="geometry"/>
                </mxCell>
                <mxCell id="67" value="" style="rounded=1;whiteSpace=wrap;html=1;fontSize=12;fontColor=#000000;" vertex="1" parent="70">
                    <mxGeometry width="119" height="70.00000000000001" as="geometry"/>
                </mxCell>
                <mxCell id="68" value="" style="aspect=fixed;perimeter=ellipsePerimeter;html=1;align=center;shadow=0;dashed=0;spacingTop=3;image;image=img/lib/active_directory/database_cube.svg;fontSize=12;fontColor=#000000;" vertex="1" parent="70">
                    <mxGeometry x="40.61" y="26.92" width="30.216000000000005" height="33.568000000000005" as="geometry"/>
                </mxCell>
                <mxCell id="69" value="Vector Store" style="text;html=1;strokeColor=none;fillColor=none;align=center;verticalAlign=middle;whiteSpace=wrap;rounded=0;fontSize=12;fontColor=#000000;" vertex="1" parent="70">
                    <mxGeometry x="21.636363636363637" y="3.8461538461538467" width="75.72727272727272" height="23.076923076923084" as="geometry"/>
                </mxCell>
                <mxCell id="71" value="" style="group" vertex="1" connectable="0" parent="1">
                    <mxGeometry x="295" y="140" width="111" height="49" as="geometry"/>
                </mxCell>
                <mxCell id="6" value="" style="rounded=1;whiteSpace=wrap;html=1;fontSize=12;fontColor=#000000;align=left;" vertex="1" parent="71">
                    <mxGeometry width="111" height="49" as="geometry"/>
                </mxCell>
                <mxCell id="5" value="" style="aspect=fixed;html=1;points=[];align=center;image;fontSize=12;image=img/lib/azure2/general/Files.svg;fontColor=#FF3399;" vertex="1" parent="71">
                    <mxGeometry x="40.7" y="18.375" width="24.5" height="26.796874999999996" as="geometry"/>
                </mxCell>
                <mxCell id="10" value="Documents" style="text;html=1;strokeColor=none;fillColor=none;align=center;verticalAlign=middle;whiteSpace=wrap;rounded=0;fontSize=12;fontColor=#000000;" vertex="1" parent="71">
                    <mxGeometry x="33.3" width="44.4" height="18.375" as="geometry"/>
                </mxCell>
                <mxCell id="73" value="" style="endArrow=classic;html=1;fontSize=12;fontColor=#000000;exitX=0.5;exitY=1;exitDx=0;exitDy=0;" edge="1" parent="1" source="11">
                    <mxGeometry width="50" height="50" relative="1" as="geometry">
                        <mxPoint x="399" y="281" as="sourcePoint"/>
                        <mxPoint x="350" y="294" as="targetPoint"/>
                    </mxGeometry>
                </mxCell>
                <mxCell id="74" value="" style="endArrow=classic;html=1;fontSize=12;fontColor=#000000;exitX=1;exitY=0.5;exitDx=0;exitDy=0;entryX=0;entryY=0.5;entryDx=0;entryDy=0;" edge="1" parent="1" source="27" target="47">
                    <mxGeometry width="50" height="50" relative="1" as="geometry">
                        <mxPoint x="399" y="281" as="sourcePoint"/>
                        <mxPoint x="449" y="231" as="targetPoint"/>
                    </mxGeometry>
                </mxCell>
                <mxCell id="75" style="edgeStyle=none;html=1;exitX=0.5;exitY=1;exitDx=0;exitDy=0;fontSize=12;fontColor=#000000;" edge="1" parent="1" source="57">
                    <mxGeometry relative="1" as="geometry">
                        <mxPoint x="497" y="468.9999999999999" as="targetPoint"/>
                    </mxGeometry>
                </mxCell>
                <mxCell id="76" value="Index" style="text;html=1;align=center;verticalAlign=middle;resizable=0;points=[];autosize=1;strokeColor=none;fillColor=none;fontSize=12;fontColor=#000000;" vertex="1" parent="1">
                    <mxGeometry x="564" y="441" width="49" height="35" as="geometry"/>
                </mxCell>
                <mxCell id="78" value="&lt;b&gt;&lt;font style=&quot;font-size: 15px;&quot;&gt;Indexing&lt;/font&gt;&lt;/b&gt;" style="text;html=1;strokeColor=none;fillColor=none;align=center;verticalAlign=middle;whiteSpace=wrap;rounded=0;fontSize=12;fontColor=#000000;" vertex="1" parent="1">
                    <mxGeometry x="424" y="91" width="60" height="30" as="geometry"/>
                </mxCell>
                <mxCell id="79" value="User" style="shape=umlActor;verticalLabelPosition=bottom;verticalAlign=top;html=1;outlineConnect=0;strokeColor=#000000;fontSize=12;fontColor=#000000;" vertex="1" parent="1">
                    <mxGeometry x="115.5" y="560" width="21" height="42" as="geometry"/>
                </mxCell>
                <mxCell id="81" value="Query" style="rounded=1;whiteSpace=wrap;html=1;strokeColor=#000000;fontSize=12;fontColor=#000000;" vertex="1" parent="1">
                    <mxGeometry x="94.5" y="497" width="63" height="28" as="geometry"/>
                </mxCell>
                <mxCell id="83" value="" style="endArrow=classic;html=1;fontSize=12;fontColor=#000000;exitX=0.5;exitY=0;exitDx=0;exitDy=0;exitPerimeter=0;entryX=0.5;entryY=1;entryDx=0;entryDy=0;" edge="1" parent="1" source="79" target="81">
                    <mxGeometry width="50" height="50" relative="1" as="geometry">
                        <mxPoint x="315" y="442" as="sourcePoint"/>
                        <mxPoint x="365" y="392" as="targetPoint"/>
                    </mxGeometry>
                </mxCell>
                <mxCell id="84" value="Embedding Model" style="rounded=1;whiteSpace=wrap;html=1;strokeColor=#000000;fontSize=12;fontColor=#000000;" vertex="1" parent="1">
                    <mxGeometry x="182" y="497" width="112" height="28" as="geometry"/>
                </mxCell>
                <mxCell id="85" value="" style="endArrow=classic;html=1;fontSize=12;fontColor=#000000;exitX=1;exitY=0.5;exitDx=0;exitDy=0;entryX=0;entryY=0.5;entryDx=0;entryDy=0;" edge="1" parent="1" source="81" target="84">
                    <mxGeometry width="50" height="50" relative="1" as="geometry">
                        <mxPoint x="315" y="442" as="sourcePoint"/>
                        <mxPoint x="365" y="392" as="targetPoint"/>
                    </mxGeometry>
                </mxCell>
                <mxCell id="88" value="Vectorization" style="rounded=1;whiteSpace=wrap;html=1;strokeColor=#000000;fontSize=12;fontColor=#000000;" vertex="1" parent="1">
                    <mxGeometry x="328" y="497" width="90.25" height="30" as="geometry"/>
                </mxCell>
                <mxCell id="89" value="" style="endArrow=classic;html=1;fontSize=12;fontColor=#000000;exitX=1;exitY=0.5;exitDx=0;exitDy=0;entryX=0;entryY=0.5;entryDx=0;entryDy=0;" edge="1" parent="1" source="84" target="88">
                    <mxGeometry width="50" height="50" relative="1" as="geometry">
                        <mxPoint x="315" y="442" as="sourcePoint"/>
                        <mxPoint x="365" y="392" as="targetPoint"/>
                    </mxGeometry>
                </mxCell>
                <mxCell id="90" value="" style="endArrow=classic;html=1;fontSize=12;fontColor=#000000;exitX=1;exitY=0.5;exitDx=0;exitDy=0;entryX=-0.006;entryY=0.638;entryDx=0;entryDy=0;entryPerimeter=0;" edge="1" parent="1" source="88" target="67">
                    <mxGeometry width="50" height="50" relative="1" as="geometry">
                        <mxPoint x="315" y="442" as="sourcePoint"/>
                        <mxPoint x="365" y="392" as="targetPoint"/>
                    </mxGeometry>
                </mxCell>
                <mxCell id="91" value="" style="endArrow=classic;html=1;fontSize=15;fontColor=#000000;exitX=1;exitY=0.5;exitDx=0;exitDy=0;" edge="1" parent="1" source="67">
                    <mxGeometry width="50" height="50" relative="1" as="geometry">
                        <mxPoint x="420" y="610" as="sourcePoint"/>
                        <mxPoint x="644" y="595" as="targetPoint"/>
                        <Array as="points">
                            <mxPoint x="644" y="504"/>
                        </Array>
                    </mxGeometry>
                </mxCell>
                <mxCell id="92" value="&lt;font style=&quot;font-size: 12px;&quot;&gt;Search&lt;/font&gt;" style="text;html=1;strokeColor=none;fillColor=none;align=center;verticalAlign=middle;whiteSpace=wrap;rounded=0;fontSize=15;fontColor=#000000;direction=east;container=0;flipH=0;flipV=1;horizontal=0;" vertex="1" parent="1">
                    <mxGeometry x="399" y="455" width="53" height="56" as="geometry"/>
                </mxCell>
                <mxCell id="93" value="Retrieve" style="text;html=1;strokeColor=none;fillColor=none;align=center;verticalAlign=middle;whiteSpace=wrap;rounded=0;fontSize=12;fontColor=#000000;" vertex="1" parent="1">
                    <mxGeometry x="613" y="560" width="60" height="30" as="geometry"/>
                </mxCell>
                <mxCell id="102" value="" style="group" vertex="1" connectable="0" parent="1">
                    <mxGeometry x="588" y="595" width="140" height="168" as="geometry"/>
                </mxCell>
                <mxCell id="95" value="" style="rounded=0;whiteSpace=wrap;html=1;strokeColor=#000000;fontSize=12;fontColor=#000000;" vertex="1" parent="102">
                    <mxGeometry x="-7" width="140" height="168" as="geometry"/>
                </mxCell>
                <mxCell id="100" value="" style="rounded=1;whiteSpace=wrap;html=1;strokeColor=#000000;fontSize=14;fontColor=#000000;" vertex="1" parent="102">
                    <mxGeometry x="3.5" y="67.2" width="113.4" height="33.6" as="geometry"/>
                </mxCell>
                <mxCell id="96" value="Augmentation" style="text;html=1;strokeColor=none;fillColor=none;align=center;verticalAlign=middle;whiteSpace=wrap;rounded=0;fontSize=14;fontColor=#000000;fontStyle=1" vertex="1" parent="102">
                    <mxGeometry x="21" y="5.6000000000000005" width="78.39999999999999" height="24" as="geometry"/>
                </mxCell>
                <mxCell id="97" value="Prompt" style="rounded=1;whiteSpace=wrap;html=1;strokeColor=#000000;fontSize=14;fontColor=#000000;" vertex="1" parent="102">
                    <mxGeometry x="3.5" y="29.6" width="113.4" height="26.4" as="geometry"/>
                </mxCell>
                <mxCell id="98" value="" style="sketch=0;outlineConnect=0;fontColor=#232F3E;gradientColor=none;fillColor=#3F8624;strokeColor=none;dashed=0;verticalLabelPosition=bottom;verticalAlign=top;align=center;html=1;fontSize=12;fontStyle=0;aspect=fixed;pointerEvents=1;shape=mxgraph.aws4.iot_analytics_data_store;" vertex="1" parent="102">
                    <mxGeometry x="33.6" y="70" width="15.484260355029589" height="22.36686390532545" as="geometry"/>
                </mxCell>
                <mxCell id="99" value="Related Doc" style="text;html=1;strokeColor=none;fillColor=none;align=center;verticalAlign=middle;whiteSpace=wrap;rounded=0;fontSize=14;fontColor=#000000;" vertex="1" parent="102">
                    <mxGeometry x="63" y="70" width="28" height="24" as="geometry"/>
                </mxCell>
                <mxCell id="101" value="Query" style="rounded=1;whiteSpace=wrap;html=1;strokeColor=#000000;fontSize=14;fontColor=#000000;" vertex="1" parent="102">
                    <mxGeometry x="3.5" y="112" width="113.4" height="33.6" as="geometry"/>
                </mxCell>
                <mxCell id="105" value="" style="endArrow=classic;html=1;fontSize=14;fontColor=#000000;exitX=0.5;exitY=1;exitDx=0;exitDy=0;" edge="1" parent="1" source="95">
                    <mxGeometry width="50" height="50" relative="1" as="geometry">
                        <mxPoint x="385" y="694" as="sourcePoint"/>
                        <mxPoint x="532" y="798" as="targetPoint"/>
                        <Array as="points">
                            <mxPoint x="651" y="798"/>
                        </Array>
                    </mxGeometry>
                </mxCell>
                <mxCell id="107" value="Gen. LLM" style="rounded=1;whiteSpace=wrap;html=1;strokeColor=#000000;fontSize=14;fontColor=#000000;" vertex="1" parent="1">
                    <mxGeometry x="413" y="777" width="120" height="42" as="geometry"/>
                </mxCell>
                <mxCell id="108" value="Response" style="rounded=1;whiteSpace=wrap;html=1;strokeColor=#000000;fontSize=14;fontColor=#000000;" vertex="1" parent="1">
                    <mxGeometry x="182" y="777" width="120" height="42" as="geometry"/>
                </mxCell>
                <mxCell id="109" value="" style="endArrow=classic;html=1;fontSize=14;fontColor=#000000;exitX=0;exitY=0.5;exitDx=0;exitDy=0;entryX=1;entryY=0.5;entryDx=0;entryDy=0;" edge="1" parent="1" source="107" target="108">
                    <mxGeometry width="50" height="50" relative="1" as="geometry">
                        <mxPoint x="385" y="750" as="sourcePoint"/>
                        <mxPoint x="435" y="700" as="targetPoint"/>
                    </mxGeometry>
                </mxCell>
                <mxCell id="110" value="Generate" style="text;html=1;strokeColor=none;fillColor=none;align=center;verticalAlign=middle;whiteSpace=wrap;rounded=0;fontSize=14;fontColor=#000000;" vertex="1" parent="1">
                    <mxGeometry x="343" y="756" width="35" height="28" as="geometry"/>
                </mxCell>
            </root>
        </mxGraphModel>
    </diagram>
</mxfile>